<svg xmlns="http://www.w3.org/2000/svg" width="480" height="315.848" viewBox="0 0 480 315.848">
  <g id="undraw_happy_news_hxmt" transform="translate(-191 -1974.443)">
    <path id="Path" d="M44.08,21.533C19.78,21.644,0,22,0,22S23.511-8.906,43.992,2.545,88,21.6,88,21.6,68.381,21.421,44.08,21.533Z" transform="translate(246 2090.292)" fill="#f2f2f2"/>
    <path id="Oval" d="M5,10A5,5,0,1,0,0,5,5,5,0,0,0,5,10Z" transform="translate(557 2111.292)" fill="#ff6584"/>
    <path id="Rectangle" d="M0,0H57.843V1.555H0Z" transform="translate(524.99 2195.606) rotate(-48.949)" fill="#3f3d56"/>
    <path id="Oval-2" data-name="Oval" d="M8,16A8,8,0,1,0,0,8,8,8,0,0,0,8,16Z" transform="translate(556 2144.292)" fill="#3f3d56"/>
    <path id="Path-2" data-name="Path" d="M4.286,33S19.646,13.427,0,0" transform="translate(536 2146.292)" fill="#3f3d56"/>
    <path id="Path-3" data-name="Path" d="M17.578,114.4C45.726,166.6,105.467,189,105.467,189s14.1-62.214-14.045-114.4S3.533,0,3.533,0-10.57,62.214,17.578,114.4Z" transform="translate(268 2099.292)" fill="#3f3d56"/>
    <path id="Path-4" data-name="Path" d="M113.621,21.46C164.431,52.116,184,113.008,184,113.008S121.189,124.2,70.379,93.54,0,1.992,0,1.992,62.811-9.2,113.621,21.46Z" transform="translate(191 2175.292)" fill="#111b47"/>
    <path id="Path-5" data-name="Path" d="M71.194,20.73C20.108,50.967,0,111.75,0,111.75s62.719,11.758,113.806-18.48S185,2.25,185,2.25,122.281-9.508,71.194,20.73Z" transform="translate(435 2176.292)" fill="#3f3d56"/>
    <path id="Path-6" data-name="Path" d="M91.739,114.221C63.134,166.135,3.207,188,3.207,188s-13.55-62.306,15.054-114.221S106.793,0,106.793,0,120.343,62.306,91.739,114.221Z" transform="translate(433 2101.292)" fill="#111b47"/>
    <path id="Path-7" data-name="Path" d="M6.881,21.04A15.61,15.61,0,0,1,4.944,0c-.314.295-.621.6-.915.926A15.6,15.6,0,1,0,27.171,21.86c.294-.325.567-.662.829-1a15.593,15.593,0,0,1-21.119.184Z" transform="translate(414 2052.292)" fill="#2f2e41"/>
    <path id="Oval-3" data-name="Oval" d="M32.5,65A32.5,32.5,0,1,0,0,32.5,32.5,32.5,0,0,0,32.5,65Z" transform="translate(374 2019.292)" fill="#2f2e41"/>
    <path id="Path-8" data-name="Path" d="M72.238,38.031l.974-2.505L55.476,50.365,34.038,62.314s-10.914-41.629-11.694-42.4S7.532-10.15,1.295,3.726,13.378,25.7,13.378,25.7,13.963,76.383,32.673,76,74.576,58.845,74.966,57.3,72.238,38.031,72.238,38.031Z" transform="translate(325 2055.292)" fill="#ffb8b8"/>
    <path id="Oval-4" data-name="Oval" d="M19.5,39A19.5,19.5,0,1,0,0,19.5,19.5,19.5,0,0,0,19.5,39Z" transform="translate(383 2046.292)" fill="#ffb8b8"/>
    <path id="Path-9" data-name="Path" d="M13.879,12.75s5.064,6.568,3.506,7.341S6.868,21.25,1.414,27.818,8.036,51,8.036,51L54,20.477,35.3,14.3S22.449,7.341,22.838,0Z" transform="translate(392 2067.292)" fill="#ffb8b8"/>
    <path id="Path-10" data-name="Path" d="M125,206H73.37c-2.925-21.337-4.277-40.891-4.277-40.891S68.339,184.778,66.331,206H0C9.4,143.159,53.978,75.016,53.978,75.016s.388-9.283,1.551-10.831-6.588-1.93-10.079-13.529c-2.128-7.081-.215-11.715,1.6-14.246a10.245,10.245,0,0,1,2.275-2.385s.776-8.117,0-9.278c-.1-.152.666-.685,2.081-1.5,1.179-.68,2.809-1.553,4.759-2.557,11.169-5.779,32.788-16,40.194-19.486C97.987.439,98.931,0,98.931,0l13.176,4.639c10.461,3.478,10.461,25.521,10.461,25.521l-.592.9-15.812,23.9L96.992,68.829c2.327,1.543-2.322,11.213-2.322,11.213a117.483,117.483,0,0,1,12.013,23.994,108.935,108.935,0,0,1,6.19,25.024,85.421,85.421,0,0,1,.4,16.714C111.834,164.4,118.218,187.042,125,206Z" transform="translate(343 2084.292)" fill="#2f2e41"/>
    <path id="Path-11" data-name="Path" d="M15.951.434a3.312,3.312,0,0,0-2.811-.22,3.366,3.366,0,0,0-1.979,2.032c-1.153,3.208-2.322,9.9-1.906,23.8C10.021,51.62,10.4,69.057,10.4,69.057V107.8S-6.449,145,2.744,145s15.7-29.447,15.7-29.447,8.426-44.559,5.745-52.308C24.192,63.245,31.752,9.71,15.951.434Z" transform="translate(439 2090.292)" fill="#ffb8b8"/>
    <path id="Oval-5" data-name="Oval" d="M16.5,23C25.613,23,33,17.851,33,11.5S25.613,0,16.5,0,0,5.149,0,11.5,7.387,23,16.5,23Z" transform="translate(384 2037.292)" fill="#2f2e41"/>
    <path id="Oval-6" data-name="Oval" d="M16,32A16,16,0,1,0,0,16,16,16,0,0,0,16,32Z" transform="translate(411 2007.292)" fill="#2f2e41"/>
    <path id="Path-12" data-name="Path" d="M16,14.385A15.878,15.878,0,0,1,.06,0C.023.432,0,.867,0,1.308A15.848,15.848,0,0,0,16,17,15.848,15.848,0,0,0,32,1.308C32,.867,31.977.432,31.94,0A15.878,15.878,0,0,1,16,14.385Z" transform="translate(422 2020.292)" fill="#2f2e41"/>
    <path id="Oval-7" data-name="Oval" d="M1.356,6.2c.749,0,1.356-1.388,1.356-3.1S2.105,0,1.356,0,0,1.388,0,3.1.607,6.2,1.356,6.2Z" transform="matrix(0.973, -0.232, 0.232, 0.973, 418.63, 2056.595)" fill="#ffb8b8"/>
    <path id="Oval-8" data-name="Oval" d="M1,2A1,1,0,1,0,0,1,1,1,0,0,0,1,2Z" transform="translate(420 2060.292)" fill="#f2f2f2"/>
    <path id="Shape" d="M237.5,2128.292a6.5,6.5,0,1,1,6.5-6.5A6.508,6.508,0,0,1,237.5,2128.292Zm0-11.917a5.417,5.417,0,1,0,5.416,5.416A5.423,5.423,0,0,0,237.5,2116.375Z" fill="#3f3d56"/>
    <path id="Shape-2" data-name="Shape" d="M509,2082.291H495v-14h14v14Zm-12.923-12.923v11.847h11.846v-11.847Z" fill="#3f3d56"/>
    <path id="Path-13" data-name="Path" d="M44.08,21.533C19.78,21.644,0,22,0,22S23.511-8.906,43.992,2.545,88,21.6,88,21.6,68.381,21.421,44.08,21.533Z" transform="translate(583 2133.292)" fill="#f2f2f2"/>
    <path id="Path-14" data-name="Path" d="M44.08,21.533C19.78,21.644,0,22,0,22S23.511-8.906,43.992,2.545,88,21.6,88,21.6,68.381,21.421,44.08,21.533Z" transform="translate(508 2028.292)" fill="#f2f2f2"/>
    <path id="Path-15" data-name="Path" d="M60.358,80.133,4.236,51.161A7.848,7.848,0,0,1,.865,40.612L14.087,14.8a3.094,3.094,0,0,1,1.884-1.56L60.2.29a7.191,7.191,0,0,1,8.807,4.546L83.545,46.457a8.141,8.141,0,0,1-.439,6.393l-12.241,23.9a7.788,7.788,0,0,1-10.507,3.384Z" transform="translate(262 1983.292)" fill="#f2f2f2"/>
    <path id="Path-16" data-name="Path" d="M57.347,54.576.805,30.335c-1.822-.941-.114.505.823-1.324L8.736,0,78,35.767,60.489,57.511C59.553,59.34,59.169,55.517,57.347,54.576Z" transform="translate(267 1999.292)" opacity="0.1"/>
    <path id="Rectangle-2" data-name="Rectangle" d="M0,0H58.007V58.007H0Z" transform="matrix(0.457, -0.889, 0.889, 0.457, 269.877, 2033.189)" fill="#111b47"/>
    <path id="Path-17" data-name="Path" d="M66,26.586,51.458,55,0,28.414,14.542,0,33.877,25.788l32.123.8Z" transform="translate(270 2004.292)" opacity="0.1"/>
    <path id="Path-18" data-name="Path" d="M42.252,33.657,17.288.6A1.518,1.518,0,0,0,14.729.82L.524,28.376a4.715,4.715,0,0,0,2.045,6.357L64.46,66.478a4.738,4.738,0,0,0,6.373-2.039L84.8,37.355a1.845,1.845,0,0,0-1.6-2.688Z" transform="translate(261 1998.292)" fill="#f2f2f2"/>
    <path id="Rectangle-3" data-name="Rectangle" d="M0,0H16.222V2.294H0Z" transform="matrix(0.889, 0.457, -0.457, 0.889, 298.412, 1988.624)" fill="#f2f2f2"/>
    <path id="Rectangle-4" data-name="Rectangle" d="M0,0H48.175V1.311H0Z" transform="matrix(0.889, 0.457, -0.457, 0.889, 293.425, 1995.456)" fill="#f2f2f2"/>
    <path id="Rectangle-5" data-name="Rectangle" d="M0,0H48.175V1.311H0Z" transform="matrix(0.889, 0.457, -0.457, 0.889, 291.402, 1999.391)" fill="#f2f2f2"/>
    <path id="Rectangle-6" data-name="Rectangle" d="M0,0H48.175V1.311H0Z" transform="matrix(0.889, 0.457, -0.457, 0.889, 289.379, 2003.326)" fill="#f2f2f2"/>
    <path id="Oval-9" data-name="Oval" d="M6.731,13.437A6.718,6.718,0,1,0,0,6.718,6.724,6.724,0,0,0,6.731,13.437Z" transform="matrix(0.457, -0.889, 0.889, 0.457, 289.046, 1986.415)" fill="#fff"/>
    <path id="Shape-3" data-name="Shape" d="M298,1991.292a7.987,7.987,0,1,1,7.123-4.343A7.919,7.919,0,0,1,298,1991.292Zm-3.628-10.975h0l-1.549.5,1.771,5.52,9.949-3.184-.5-1.548-8.4,2.693-1.276-3.977Z" fill="#57b894"/>
  </g>
</svg>
